<?xml version="1.0" encoding="utf-8"?>
<!-- Generator: Adobe Illustrator 22.0.1, SVG Export Plug-In . SVG Version: 6.00 Build 0)  -->
<svg version="1.1" id="Layer_1" xmlns="http://www.w3.org/2000/svg" xmlns:xlink="http://www.w3.org/1999/xlink" x="0px" y="0px"
	 viewBox="0 0 140.8 41.3" style="enable-background:new 0 0 140.8 41.3;" xml:space="preserve">
<style type="text/css">
	.st0{fill:#A9ABAC;}
	.st1{fill:#FFFFFF;}
</style>
<g>
	<path class="st0" d="M122.6,33.4c0.2-1.2-0.4-2.3-2.3-2.3c0,0-14.2,0-15,0c-1.5,0-2.6,0.8-2.7,2c-0.1,0.4-0.1,0.8-0.1,0.8h20
		C122.5,33.9,122.5,33.6,122.6,33.4"/>
	<path class="st0" d="M112.9,35l-0.8,6.2h3.4l0.5-3.9h4.3c1.2,0,1.9-0.6,2-1.5c0.1-0.4,0.1-0.8,0.1-0.8H112.9z"/>
	<polygon class="st0" points="102.2,31 93.1,31 92.7,33.9 101.8,33.9 	"/>
	<polygon class="st0" points="101.4,37.4 101.7,35 92.6,35 91.8,41.2 100.9,41.2 101.2,38.5 95.6,38.5 95.7,37.4 	"/>
	<path class="st0" d="M130.9,31h-7.4l-0.4,2.9h9.8c0,0,0-0.1,0.1-0.4C133.3,31.6,132.1,31,130.9,31"/>
	<polygon class="st0" points="122.3,41.2 125.7,41.2 126.4,35 123,35 	"/>
	<polygon class="st0" points="128.7,41.2 132.1,41.2 132.9,35 129.5,35 	"/>
	<path class="st0" d="M109.8,35c-0.6,0-6.3,0-7.4,0c-0.2,1.6,0.6,2.4,1.7,2.4c0.6,0,4.6,0,4.6,0l-0.1,1.2h-6.6l-0.3,2.7
		c0,0,7.2,0,7.5,0c0.2,0,1.9-0.1,2.5-1.4c0.2-0.4,0.3-2,0.4-2.4C112.2,35.5,110.9,35,109.8,35"/>
	<polygon class="st1" points="134.8,-0.1 129.5,15.7 121.4,-0.1 113.4,5.2 107.4,23.4 113.6,23.4 118.8,7.5 126.9,23.4 133.2,23.4 
		140.9,-0.1 	"/>
	<path class="st1" d="M61.8,15l2.6-7.8c0.5-1.1,1.6-1.8,3-1.8h10.5l8.3-5.5H68c-1.3,0-7.7,0.2-9.4,5.1l-3.8,11.4
		c-1.1,4.3,1.8,7,5.7,7h16.7l1.8-5.5H65.1C62.9,17.9,61.3,17.1,61.8,15"/>
	<path class="st1" d="M46.1-0.1L15.7,23.4h9l5-3.8l15-3.7l-2.2,7.5l6.9,0l6.6-23.5H46.1z M45,14.6h-8.8l11.4-8.8L45,14.6z"/>
	<path class="st1" d="M88.8,15l2.6-7.8c0.5-1.1,1.6-1.8,3-1.8h10.5l8.3-5.5H95c-1.3,0-7.7,0.2-9.3,5.1l-3.8,11.4
		c-1.1,4.3,1.8,7,5.7,7h16.7l1.8-5.5H92C89.8,17.9,88.2,17.1,88.8,15"/>
	<polygon class="st0" points="11,27.1 -0.1,35.7 103.5,27.1 	"/>
</g>
</svg>
