<?xml version="1.0" encoding="utf-8"?>
<!-- Generator: Adobe Illustrator 21.1.0, SVG Export Plug-In . SVG Version: 6.00 Build 0)  -->
<svg version="1.1" id="Layer_1" xmlns="http://www.w3.org/2000/svg" xmlns:xlink="http://www.w3.org/1999/xlink" x="0px" y="0px"
	 viewBox="0 0 235 48" style="enable-background:new 0 0 235 48;" xml:space="preserve">
<g>
	<path style="fill:#1C1C1B;" d="M130.4187164,0.5390293H97.3475113H62.4246597
		C55.4504204,0.5256394,50.8557625,4.1983132,50.190094,9.6862755c-0.239109,2.0142326-0.4705582,3.8027411-0.4705582,3.8027411
		h90.5866928c0,0,0.1759644-1.33708,0.3003082-2.4101858C141.2970734,5.5487866,138.9633942,0.5390293,130.4187164,0.5390293"/>
	<path style="fill:#1C1C1B;" d="M139.6996613,18.4268456c0,0-0.1951141,1.8210335-0.4763031,3.8161335
		c-0.5470734,3.9500351-3.4966888,6.8996468-8.9655151,6.8996468h-19.2910614l-2.1787338,17.540823L93.427887,46.6949234
		l3.4832916-28.2680779H139.6996613z"/>
	<polygon style="fill:#1C1C1B;" points="7.1405172,0.5285071 48.2342072,0.5419043 46.6216736,13.4918842 5.5394607,13.4918842 	"/>
	<polygon style="fill:#1C1C1B;" points="4.925632,18.418045 1.4155558,46.6861229 42.4977684,46.6861229 44.0223083,34.4190254 
		18.2964325,34.4190254 18.9563618,29.128088 44.6822433,29.128088 46.005928,18.418045 	"/>
	<path style="fill:#1C1C1B;" d="M145.0418549,0.5390293h33.5035248c5.2928467,0,10.8114014,2.4675767,9.7115173,10.9606304
		c-0.1951141,1.5130568-0.2505798,1.989357-0.2505798,1.989357h-44.5655212L145.0418549,0.5390293z"/>
	<polygon style="fill:#1C1C1B;" points="139.3136597,46.6830635 154.6871948,46.6773262 158.189621,18.4264622 
		142.8237305,18.4149837 	"/>
	<polygon style="fill:#1C1C1B;" points="168.5010223,46.6830635 183.8688202,46.6773262 187.3769836,18.4264622 
		172.0034332,18.4149837 	"/>
	<path style="fill:#1C1C1B;" d="M82.8598022,18.4291401c-2.6684265,0-28.5014267-0.0133896-33.7483635-0.0133896
		c-1.1362267,7.3835964,2.5555687,10.7234325,7.7833748,10.7234325c2.8444023,0,20.7792511-0.0191307,20.7792511-0.0191307
		l-0.6522751,5.3043327H47.120163l-1.5187988,12.2613602c0,0,32.5623932,0.0114746,33.8746109,0
		c1.0864944-0.0765152,8.7072754-0.2831039,11.2991791-6.5170784c0.8416595-2.0218811,1.5953217-9.2715759,1.8095627-10.7846394
		C93.7955399,20.5390129,87.6744308,18.4291401,82.8598022,18.4291401"/>
</g>
<polygon style="fill:#F9B300;" points="222.8871613,17.7963886 224.3283844,6.2655373 212.1293945,6.2655373 
	210.6881714,17.7963886 199.2536011,17.7963886 197.8646393,29.2294312 209.3325806,29.2294312 207.8610535,40.9578934 
	220.0600586,40.9578934 221.5315857,29.2294312 233.0560913,29.2294312 234.4451141,17.7963886 "/>
</svg>
